<?xml version="1.0" standalone="no"?>
<!DOCTYPE svg PUBLIC "-//W3C//DTD SVG 20010904//EN"
 "http://www.w3.org/TR/2001/REC-SVG-20010904/DTD/svg10.dtd">
<svg version="1.0" xmlns="http://www.w3.org/2000/svg"
 width="1280.000000pt" height="640.000000pt" viewBox="0 0 1280.000000 640.000000"
 preserveAspectRatio="xMidYMid meet">
<metadata>
Created by potrace 1.15, written by Peter Selinger 2001-2017
</metadata>
<g transform="translate(0.000000,640.000000) scale(0.100000,-0.100000)"
fill="#ff5500" stroke="none">
<path d="M3636 5434 c-380 -85 -646 -413 -647 -799 -1 -238 75 -423 242 -592
35 -35 78 -73 96 -85 18 -13 33 -25 33 -28 0 -3 -19 -17 -43 -32 -106 -68
-272 -236 -369 -373 -191 -270 -306 -560 -349 -883 -22 -170 -1 -472 46 -652
60 -232 207 -422 403 -523 238 -124 641 -176 1022 -133 274 31 434 82 586 187
261 181 377 498 361 988 -6 180 -25 291 -79 460 -113 356 -350 702 -615 899
l-79 58 46 32 c106 73 221 213 276 338 75 171 87 406 28 589 -45 139 -151 292
-267 385 -72 58 -216 132 -302 155 -87 24 -301 29 -389 9z"/>
<path d="M6281 5440 c-518 -108 -808 -648 -609 -1129 55 -133 169 -277 282
-356 l29 -21 -69 -44 c-83 -54 -280 -247 -352 -345 -233 -317 -371 -715 -372
-1076 -2 -807 345 -1137 1195 -1140 240 -1 376 13 548 56 342 86 562 315 637
663 42 194 53 479 25 660 -70 458 -334 915 -674 1166 l-60 44 69 51 c81 60
137 121 195 211 96 150 129 268 129 455 -1 111 -5 143 -28 218 -44 146 -96
236 -200 346 -99 103 -242 189 -381 227 -70 19 -297 28 -364 14z"/>
<path d="M8851 5440 c-135 -28 -256 -85 -363 -171 -328 -261 -405 -737 -176
-1090 47 -74 134 -167 201 -216 l47 -35 -57 -40 c-323 -226 -593 -657 -683
-1090 -59 -284 -40 -647 46 -889 131 -370 437 -550 976 -577 962 -47 1360 279
1361 1118 0 203 -13 307 -63 485 -104 368 -343 729 -616 932 l-82 60 61 44
c188 136 326 412 327 650 0 207 -84 418 -228 571 -103 109 -244 195 -387 234
-70 19 -297 28 -364 14z"/>
</g>
</svg>
