<?xml version="1.0" encoding="utf-8"?>
<svg version="1.1" id="Layer_1" xmlns:serif="http://www.serif.com/"
	 fill="#ff5500"
	 xmlns="http://www.w3.org/2000/svg" xmlns:xlink="http://www.w3.org/1999/xlink" x="0px" y="0px" viewBox="0 0 2609.759 1418.56"
	 enable-background="new 0 0 2609.759 1418.56" xml:space="preserve">
<g id="XMLID_1_">
	<path d="M2287.454,598.04c3.85,8.713,3.85,18.102-0.84,28.33c-30.49,72.099-341.195-5.631-341.195-40.073
		c0-2.846,4.536-1.843,13.75,0c25.821,5.037,65.055-16.259,75.948-37.053c23.313,13.586,100.94,19.617,129.946,20.456
		C2186.35,570.703,2277.389,577.911,2287.454,598.04z"/>
	<path d="M2243.019,497.273c123.69,2.703,149.839-1.884,137.655,36.551c-14.764,40.575-110.493,26.988-143.184,21.286
		c-35.374-5.693-165.821-7.208-185.438-21.286c-9.552-2.355-36.213-26.999-36.213-37.728
		C2015.839,488.888,2207.144,496.598,2243.019,497.273z"/>
	<path d="M2082.737,411.936c231.797,12.972,404.222-11.211,386.121,32.19c-15.092,41.578-131.441,27.828-166.824,28.33
		c-81.139,1.341-162.125,0.84-243.275,0.84c18.542-13.678,21.368-48.51-12.573-66.56
		C2050.046,408.742,2062.281,410.257,2082.737,411.936z"/>
	<path d="M2543.639,359.956c0,29.179-40.575,30.347-62.208,30.347l-292.061,3.522c-14.252,0.164-105.292,8.385-100.265-2.007
		c5.037-10.402,19.955-19.453,18.777-33.869c-0.666-11.068-5.365-29.005-15.757-33.705c81.221,1.71,323.36,6.542,390.483,6.542
		C2498.201,330.787,2543.639,340.001,2543.639,359.956z"/>
	<path d="M2525.527,248.132c19.279,0,59.352,2.345,59.352,28.831c0,49.984-305.381,27.838-470.956,27.838
		c28.074-14.784,16.566-51.683,1.505-58.185C2416.232,246.617,2525.527,248.132,2525.527,248.132z"/>
	<path d="M1614.125,301.28c-22.463,1.669-33.029-32.527-31.186-35.712c7.72-11.569,46.615-1.014,58.687-18.951
		c430.279,6.686,466.769-13.556,466.769,30.347C2108.395,310.996,2059.649,301.28,1614.125,301.28z"/>
	<path d="M2018.696,328.104c18.439,0,64.881,11.068,64.881,34.534c0,22.135-47.281,27.664-63.376,27.664
		c-257.475,0-365.9,3.645-379.753-4.689c-6.87-5.539-12.071-13.586-13.75-22.135c-4.351-15.757-12.911-22.637,1.177-36.551
		C1776.629,328.371,1784.707,328.104,2018.696,328.104z"/>
	<path d="M1996.56,417.803c19.617,0,49.626,9.726,49.626,33.531c0,46.871-85.511,16.433-373.876,16.433
		c-38.066,0-34.043-43.595-31.862-44.773C1649.376,415.663,1631.203,417.803,1996.56,417.803z"/>
	<path d="M1860.758,496.096c20.958,1.003,167.326,1.003,156.596,43.257c-8.723,24.644-48.622,29.845-70.42,27.664
		c-73.942-7.884-250.657-32.865-308.166-60.693c0-3.348,1.679-5.027,1.679-8.211
		C1644.308,488.049,1827.227,493.915,1860.758,496.096z"/>
	<path d="M1908.367,588.979c12.911,4.699,41.414,17.436,38.568,34.708c-13.494,53.721-294.753-44.691-316.377-77.126
		c1.843-4.188,3.02-7.044,3.522-9.89C1636.087,526.279,1879.873,576.744,1908.367,588.979z"/>
	<path d="M1761.169,627.209c22.463,8.385,91.368,30.51,72.427,65.72c-15.091,15.091-54.99-1.341-73.102-4.362
		c-53.363-19.074-124.151-44.598-149.214-85.337c2.682-5.529,4.689-9.89,5.529-12.737
		C1626.033,581.269,1745.904,621.342,1761.169,627.209z"/>
	<path d="M1590.823,642.966c10.3-11.447,199.024,73.624,153.074,117.701c-27.777,21.367-146.634-63.028-162.965-103.951
		C1584.117,651.013,1587.137,648.003,1590.823,642.966z"/>
	<path d="M1656.881,767.209c14.252,18.439,22.965,56.496-2.682,69.406c-18.941,9.389-60.529-28.667-71.587-42.919
		c-20.292-25.657-48.12-45.602-51.305-80.31c7.034-5.529,11.897-12.911,19.443-19.279
		C1567.52,677.172,1644.974,751.78,1656.881,767.209z"/>
	<path d="M1585.294,848.686c7.546,22.637,7.709,60.529-19.617,69.242c-31.688,7.044-57.683-32.016-73.266-53.813
		c-10.31-17.815-19.279-33.428-25.668-49.236c-6.399-15.798-10.218-31.79-10.218-50.352c13.412-8.559,28.166-13.249,40.237-23.641
		C1514.035,727.136,1578.915,830.912,1585.294,848.686z"/>
	<path d="M1567.182,949.453c19.791,8.477,88.204,154.784,55.164,176.715c-26.999,17.938-57.509-59.014-64.215-75.119
		c-5.867-14.754-49.298-120.373-57.007-124.734C1488.613,899.97,1556.022,938.282,1567.182,949.453z"/>
	<path d="M1557.292,1100.182c9.051,25.985,10.392,74.935-14.927,92.545c-18.276,13.412-36.715-20.119-44.424-33.029
		c-15.091-32.026-28.002-93.057-33.029-128.768c-6.184-22.852,28.084-37.995,36.213-68.904
		C1501.124,948.275,1547.402,1070.337,1557.292,1100.182z"/>
	<path d="M1415.285,781.123c20.231-8.129,115.817,198.574,35.875,214.095c-67.85,12.818-87.938-166.579-74.443-203.202
		C1388.788,790.338,1403.716,785.147,1415.285,781.123z"/>
	<path d="M1478.661,1169.087c8.887,29.169,5.027,80.474-20.456,99.589c-25.985,16.771-53.485-16.259-55.492-44.424
		c-13.822-190.373-39.285-160.026-18.45-249.152c5.529-19.043-0.491,29.886,49.124,42.09c2.682,1.167,2.519-8.385,10.228,20.119
		C1451.324,1065.812,1465.75,1126.833,1478.661,1169.087z"/>
	<path d="M1380.741,1239.506c6.041,52.308-11.395,133.621-76.112,136.642c-47.117-2.344-70.082-49.462-75.109-90.876
		c-2.181-24.306,9.215-217.791,23.968-225.163c8.221-4.699,25.657,15.255,51.141,15.255c25.821,0,43.421-19.955,51.305-15.255
		C1364.82,1063.631,1379.236,1220.555,1380.741,1239.506z"/>
	<path d="M1343.688,797.556c9.348,6.604,17.61,135.137,17.61,197.663c0,30.521-24.48,64.051-56.67,62.034
		c-32.527,2.181-56.67-32.517-56.67-62.034c0-51.704,7.331-188.776,19.781-197.663
		C1277.609,801.907,1329.18,801.18,1343.688,797.556z"/>
	<path d="M1221.974,973.093c3.655-15.347,13.668,52.011,11.057,64.881c-14.078,59.014-12.235,127.253-26.323,186.278
		c-5.191,20.784-29.169,61.021-55.154,44.424c-25.821-18.276-28.166-71.587-20.794-99.589
		c6.706-20.292,34.207-147.034,45.602-151.897C1197.832,1011.651,1216.435,994.717,1221.974,973.093z"/>
	<path d="M1042.577,949.453c15.532-11.651,77.034-48.981,66.058-23.139c-20.723,11.999-79.163,231.163-121.561,199.854
		c-5.928-3.798-8.467-12.214-8.467-23.466C978.607,1060.171,1014.933,977.086,1042.577,949.453z"/>
	<path d="M1142.504,1013.668c12.655,20.344-34.79,210.358-75.119,179.059c-38.722-26.323-14.58-95.565-2.345-129.936
		c7.546-19.617,43.595-111.834,43.595-100.766C1110.478,979.625,1132.439,998.413,1142.504,1013.668z"/>
	<path d="M1233.031,793.696c12.88,33.183-6.082,214.566-74.771,201.522c-49.963-10.054-28.504-99.753-15.757-131.103
		c3.348-8.221,41.076-88.03,51.97-81.487C1207.046,787.153,1220.295,789.836,1233.031,793.696z"/>
	<path d="M1151.554,764.527c1.505,34.698-16.771,70.584-34.544,99.589c-65.341,101.401-112.899,41.312-92.545-15.429
		c20.979-57.816,79.972-116.022,87.016-108.978C1123.552,748.759,1138.644,756.305,1151.554,764.527z"/>
	<path d="M1059.173,694.107c6.368,6.368,12.737,13.238,19.279,19.279c-4.024,35.875-30.183,53.649-51.13,80.31
		c-11.744,14.917-51.817,51.305-71.761,42.919c-43.595-18.439,11.569-88.859,25.985-102.435
		C996.135,720.768,1048.443,683.377,1059.173,694.107z"/>
	<path d="M1018.936,641.799c4.525,3.522,5.027,11.057,9.89,14.917c-16.852,39.592-133.089,125.134-163.303,103.951
		c-28.504-27.326,37.053-69.079,56.168-80.31C935.35,672.064,1010.397,628.602,1018.936,641.799z"/>
	<path d="M992.613,590.494c2.345,4.188,2.682,8.549,5.529,12.737c-8.211,15.255-23.978,29.845-47.609,42.418
		c-27.838,15.593-148.887,70.584-174.708,47.281c-18.941-35.036,49.462-57.673,72.764-66.56
		C862.842,621.005,984.904,577.082,992.613,590.494z"/>
	<path d="M976.017,538.176c0,4.362,1.167,7.884,2.846,9.563c-4.362,7.372-14.917,14.917-31.852,22.801
		c-44.557,21.204-254.24,98.463-274.799,57.335c-14.252-33.695,44.936-44.087,66.56-49.953
		c89.719-24.265,196.598-41.65,228.091-41.65C972.761,536.272,976.017,536.886,976.017,538.176z"/>
	<path d="M1606.037,53.398c44.414,2.293,69.242,56.096,67.44,95.145c-3.338,73.604-90.139,102.947-122.728,84.323
		c-130.468-139.068-356.552-143.819-490.399-1.167c-4.362,2.682-14.59,4.362-29.517,5.529
		c-135.147,6.594-109.1-180.933-26.446-183.892c0.655-0.02,1.311-0.031,1.976-0.031c-49.124,27.5-30.521,103.951,26.323,106.295
		c80.638,4.362,102.097-117.189,271.942-117.189c172.015,0,191.468,121.55,271.942,117.189
		c59.188-2.345,74.106-80.638,26.487-106.295C1604.061,53.306,1605.054,53.336,1606.037,53.398z"/>
	<path d="M1608.597,463.405c0,165.985-138.157,303.804-303.968,303.804c-165.821,0-303.804-138.321-303.804-303.804
		s138.321-303.804,303.804-303.804C1470.276,159.601,1608.597,297.584,1608.597,463.405z"/>
	<path d="M1026.482,265.568c4.024,5.027-11.406,26.825-14.59,32.19c-3.082,5.508-397.506,3.973-422.334,3.522
		c-19.279-0.338-88.531,5.529-88.531-24.316c0-43.851,40.636-23.733,466.769-30.347c11.703,17.395,50.209,7.679,58.042,17.927
		C1023.636,264.34,1022.018,264.452,1026.482,265.568z"/>
	<path d="M981.546,326.927c14.754,11.743,2.846,34.032-2.682,49.462c-10.566,5.867-4.362,9.225-20.456,12.747
		c-84.334,12.071-248.302,1.167-340.017,1.167c-19.279,0-92.545,2.017-92.545-27.664c0-23.139,46.605-34.534,64.881-34.534
		C822.451,328.104,832.167,328.381,981.546,326.927z"/>
	<path d="M969.311,496.434c0,4.863,0.502,7.884,1.167,9.89c-50.486,24.685-251.383,57.028-307.654,60.693
		c-18.276,0-67.062-3.86-70.42-27.664c-6.03-23.978,33.705-31.524,51.141-34.534C739.387,486.472,957.956,487.148,969.311,496.434z"
		/>
	<path d="M969.311,426.014c0,34.544-6.379,22.801-10.904,35.548c-2.007,3.85-9.051,6.204-20.958,6.204
		c-288.58,0-374.214,30.449-374.214-16.596c0-23.313,30.347-33.367,49.626-33.367C982.508,417.803,965.42,414.117,969.311,426.014z"
		/>
	<path d="M574.303,549.244c34.903,61.103,116.779,19.217,80.31,48.796c-32.865,25.146-99.261,36.541-141.679,44.926
		c-39.397,8.549-169.333,31.688-189.789-16.596c-10.392-22.463,0.502-41.742,24.818-44.097
		c23.804-2.181,65.884-11.068,96.405-12.573C470.516,569.034,551.164,562.656,574.303,549.244z"/>
	<path d="M579.832,492.574c9.389-1.167,13.75,0,13.75,3.522c0,10.904-26.323,35.046-35.886,37.892
		c-8.047,5.703-54.816,12.573-66.058,12.573c-50.793,0.676-90.528,3.86-119.707,8.549c-39.459,7.075-128.717,17.661-142.846-21.122
		c-12.235-35.712,23.64-34.708,48.458-34.708C376.968,499.28,480.744,495.932,579.832,492.574z"/>
	<path d="M563.235,406.735c-24.818,14.754-38.23,47.117-12.573,66.56c-114.517,0-229.197-1.505-343.539-1.505
		c-25.32,0-56.506,0.328-66.56-27.664C124.407,395.965,292.747,433.406,563.235,406.735z"/>
	<path d="M519.138,324.081c-18.941,6.368-27.5,59.854,1.177,67.737c-6.379,3.184-87.856,2.171-99.927,2.007
		c-303.466-4.218-354.269,6.164-354.269-33.869c0-26.149,60.028-29.169,79.645-29.169
		C162.821,330.787,333.137,328.412,519.138,324.081z"/>
	<path d="M281.392,246.617H494.32c-19.781,8.385-22.299,45.776,1.177,58.185c0,0-81.221,4.024-330.455,4.024
		c-30.183,0-140.164-3.02-140.164-31.862c0-26.487,40.063-28.831,59.352-28.831C149.952,248.132,215.672,246.617,281.392,246.617z"
		/>
</g>
</svg>
